---
title: 白冰冰.1994-阿娜答【吉马】【WAV+CUE】
date: 2023-08-21 09:12:59
categories: 闽南语(台语)
tags: 华语中文
---
# 白冰冰.1994-阿娜答【吉马】【WAV+CUE】

TITLE "阿娜答"
FILE "白冰冰.-.[阿娜答](1994)[WAV].wav" WAVE
TRACK 01 AUDIO
TITLE "烘炉茶古"
PERFORMER "白冰冰&黄西田"
INDEX 01 00:00:00
TRACK 02 AUDIO
TITLE "最后才知输赢"
PERFORMER "白冰冰&方骏"
INDEX 00 03:27:13
INDEX 01 03:29:38
TRACK 03 AUDIO
TITLE "阿娜答(あなた)"
PERFORMER "白冰冰"
INDEX 00 07:08:41
INDEX 01 07:10:66
TRACK 04 AUDIO
TITLE "你是英雄"
PERFORMER "白冰冰"
INDEX 00 10:55:34
INDEX 01 10:57:59
TRACK 05 AUDIO
TITLE "小雨"
PERFORMER "白冰冰"
INDEX 00 14:34:45
INDEX 01 14:36:70
TRACK 06 AUDIO
TITLE "连串曲：I胭脂马拄到关老爷 II酒桌 III有影无"
PERFORMER "白冰冰&李登财"
INDEX 00 18:51:33
INDEX 01 18:53:58
TRACK 07 AUDIO
TITLE "钱钱钱"
PERFORMER "白冰冰"
INDEX 00 22:55:14
INDEX 01 22:57:39
TRACK 08 AUDIO
TITLE "酒梦"
PERFORMER "白冰冰"
INDEX 00 26:37:23
INDEX 01 26:39:48
TRACK 09 AUDIO
TITLE "梦中影"
PERFORMER "白冰冰"
INDEX 00 30:21:45
INDEX 01 30:23:70
TRACK 10 AUDIO
TITLE "古早童谣（日语）"
PERFORMER "白冰冰"
INDEX 00 34:37:00
INDEX 01 34:39:25
TRACK 11 AUDIO
TITLE "疼惜我的吻"
PERFORMER "白冰冰"
INDEX 00 37:52:36
INDEX 01 37:54:61
TRACK 12 AUDIO
TITLE "感情放一边"
PERFORMER "白冰冰&余天"
INDEX 00 42:26:31
INDEX 01 42:28:56
白冰冰.1994 - 阿娜答【吉马】【WAV+CUE】.rar: https://url27.ctfile.com/f/9388027-922453170-9d5b47?p=559675
(访问密码: 559675)
0.台語(闽南语)經典: https://url27.ctfile.com/d/9388027-29195657-7462f6?p=559675
(访问密码: 559675)
原文：[链接](https://blog.sina.com.cn/s/blog_1647c7e760103137k.html)